<svg width="29" height="23" viewBox="0 0 29 23" fill="none" xmlns="http://www.w3.org/2000/svg">
<path d="M2.9 23H26.1C27.695 23 29 21.7062 29 20.125C29 18.5438 27.695 17.25 26.1 17.25H2.9C1.305 17.25 0 18.5438 0 20.125C0 21.7062 1.305 23 2.9 23ZM2.9 18.6875H5.8V21.5625H2.9V18.6875ZM0 2.875C0 4.45625 1.305 5.75 2.9 5.75H26.1C27.695 5.75 29 4.45625 29 2.875C29 1.29375 27.695 0 26.1 0H2.9C1.305 0 0 1.29375 0 2.875ZM5.8 4.3125H2.9V1.4375H5.8V4.3125ZM2.9 14.375H26.1C27.695 14.375 29 13.0813 29 11.5C29 9.91875 27.695 8.625 26.1 8.625H2.9C1.305 8.625 0 9.91875 0 11.5C0 13.0813 1.305 14.375 2.9 14.375ZM2.9 10.0625H5.8V12.9375H2.9V10.0625Z" fill="#6136C7"/>
</svg>
