<svg width="21" height="21" viewBox="0 0 21 21" fill="none" xmlns="http://www.w3.org/2000/svg">
<path d="M3.63658 16.8703C2.23969 15.4734 2.23969 13.2024 3.63658 11.8055L6.90416 8.53794L5.35206 6.98583L2.08448 10.2534C-0.170155 12.508 -0.170155 16.1677 2.08448 18.4224C4.33911 20.677 7.9988 20.677 10.2534 18.4224L13.521 15.1548L11.9689 13.6027L8.70133 16.8703C7.30444 18.2672 5.03347 18.2672 3.63658 16.8703ZM7.80274 14.3379L14.3379 7.80273L12.7041 6.16894L6.16895 12.7041L7.80274 14.3379ZM10.2534 2.08446L6.98585 5.35204L8.53795 6.90414L11.8055 3.63656C13.2024 2.23967 15.4734 2.23967 16.8703 3.63656C18.2672 5.03345 18.2672 7.30442 16.8703 8.70131L13.6027 11.9689L15.1548 13.521L18.4224 10.2534C20.677 7.99878 20.677 4.3391 18.4224 2.08446C16.1677 -0.170166 12.5081 -0.170166 10.2534 2.08446Z" fill="#E8DEF8"/>
</svg>
